<svg width="622" height="72" viewBox="0 0 622 72" fill="none" xmlns="http://www.w3.org/2000/svg">
<path d="M10.2222 19.8519H14.963V24.5926H10.2222V19.8519ZM14.963 19.8519H19.7037V24.5926H14.963V19.8519ZM19.7037 19.8519H24.4444V24.5926H19.7037V19.8519ZM24.4444 19.8519H29.1852V24.5926H24.4444V19.8519ZM29.1852 19.8519H33.9259V24.5926H29.1852V19.8519ZM33.9259 19.8519H38.6667V24.5926H33.9259V19.8519ZM38.6667 24.5926H43.4074V29.3333H38.6667V24.5926ZM33.9259 24.5926H38.6667V29.3333H33.9259V24.5926ZM29.1852 24.5926H33.9259V29.3333H29.1852V24.5926ZM24.4444 24.5926H29.1852V29.3333H24.4444V24.5926ZM19.7037 24.5926H24.4444V29.3333H19.7037V24.5926ZM14.963 24.5926H19.7037V29.3333H14.963V24.5926ZM10.2222 24.5926H14.963V29.3333H10.2222V24.5926ZM5.48148 24.5926H10.2222V29.3333H5.48148V24.5926ZM5.48148 29.3333H10.2222V34.0741H5.48148V29.3333ZM10.2222 29.3333H14.963V34.0741H10.2222V29.3333ZM0.740741 29.3333H5.48148V34.0741H0.740741V29.3333ZM0.740741 34.0741H5.48148V38.8148H0.740741V34.0741ZM0.740741 38.8148H5.48148V43.5556H0.740741V38.8148ZM5.48148 38.8148H10.2222V43.5556H5.48148V38.8148ZM10.2222 38.8148H14.963V43.5556H10.2222V38.8148ZM10.2222 34.0741H14.963V38.8148H10.2222V34.0741ZM5.48148 34.0741H10.2222V38.8148H5.48148V34.0741ZM5.48148 43.5556H10.2222V48.2963H5.48148V43.5556ZM5.48148 48.2963H10.2222V53.037H5.48148V48.2963ZM5.48148 53.037H10.2222V57.7778H5.48148V53.037ZM0.740741 53.037H5.48148V57.7778H0.740741V53.037ZM0.740741 57.7778H5.48148V62.5185H0.740741V57.7778ZM0.740741 48.2963H5.48148V53.037H0.740741V48.2963ZM0.740741 43.5556H5.48148V48.2963H0.740741V43.5556ZM10.2222 43.5556H14.963V48.2963H10.2222V43.5556ZM10.2222 48.2963H14.963V53.037H10.2222V48.2963ZM10.2222 53.037H14.963V57.7778H10.2222V53.037ZM10.2222 57.7778H14.963V62.5185H10.2222V57.7778ZM5.48148 57.7778H10.2222V62.5185H5.48148V57.7778ZM5.48148 62.5185H10.2222V67.2593H5.48148V62.5185ZM10.2222 62.5185H14.963V67.2593H10.2222V62.5185ZM14.963 62.5185H19.7037V67.2593H14.963V62.5185ZM14.963 57.7778H19.7037V62.5185H14.963V57.7778ZM10.2222 67.2593H14.963V72H10.2222V67.2593ZM14.963 67.2593H19.7037V72H14.963V67.2593ZM19.7037 67.2593H24.4444V72H19.7037V67.2593ZM24.4444 67.2593H29.1852V72H24.4444V67.2593ZM29.1852 67.2593H33.9259V72H29.1852V67.2593ZM33.9259 67.2593H38.6667V72H33.9259V67.2593ZM29.1852 62.5185H33.9259V67.2593H29.1852V62.5185ZM24.4444 62.5185H29.1852V67.2593H24.4444V62.5185ZM19.7037 62.5185H24.4444V67.2593H19.7037V62.5185ZM33.9259 62.5185H38.6667V67.2593H33.9259V62.5185ZM38.6667 62.5185H43.4074V67.2593H38.6667V62.5185ZM33.9259 57.7778H38.6667V62.5185H33.9259V57.7778ZM29.1852 57.7778H33.9259V62.5185H29.1852V57.7778ZM38.6667 57.7778H43.4074V62.5185H38.6667V57.7778ZM43.4074 57.7778H48.1481V62.5185H43.4074V57.7778ZM43.4074 53.037H48.1481V57.7778H43.4074V53.037ZM38.6667 53.037H43.4074V57.7778H38.6667V53.037ZM33.9259 53.037H38.6667V57.7778H33.9259V53.037ZM38.6667 34.0741H43.4074V38.8148H38.6667V34.0741ZM43.4074 34.0741H48.1481V38.8148H43.4074V34.0741ZM43.4074 29.3333H48.1481V34.0741H43.4074V29.3333ZM33.9259 34.0741H38.6667V38.8148H33.9259V34.0741ZM33.9259 29.3333H38.6667V34.0741H33.9259V29.3333ZM29.1852 29.3333H33.9259V34.0741H29.1852V29.3333ZM38.6667 29.3333H43.4074V34.0741H38.6667V29.3333ZM14.963 29.3333H19.7037V34.0741H14.963V29.3333ZM19.7037 29.3333H24.4444V34.0741H19.7037V29.3333ZM24.4444 29.3333H29.1852V34.0741H24.4444V29.3333ZM19.7037 57.7778H24.4444V62.5185H19.7037V57.7778ZM24.4444 57.7778H29.1852V62.5185H24.4444V57.7778ZM67.0972 19.8519H71.838V24.5926H67.0972V19.8519ZM71.838 19.8519H76.5787V24.5926H71.838V19.8519ZM76.5787 19.8519H81.3194V24.5926H76.5787V19.8519ZM81.3194 19.8519H86.0602V24.5926H81.3194V19.8519ZM86.0602 19.8519H90.8009V24.5926H86.0602V19.8519ZM90.8009 19.8519H95.5417V24.5926H90.8009V19.8519ZM95.5417 24.5926H100.282V29.3333H95.5417V24.5926ZM90.8009 24.5926H95.5417V29.3333H90.8009V24.5926ZM86.0602 24.5926H90.8009V29.3333H86.0602V24.5926ZM81.3194 24.5926H86.0602V29.3333H81.3194V24.5926ZM76.5787 24.5926H81.3194V29.3333H76.5787V24.5926ZM71.838 24.5926H76.5787V29.3333H71.838V24.5926ZM67.0972 24.5926H71.838V29.3333H67.0972V24.5926ZM62.3565 24.5926H67.0972V29.3333H62.3565V24.5926ZM62.3565 29.3333H67.0972V34.0741H62.3565V29.3333ZM67.0972 29.3333H71.838V34.0741H67.0972V29.3333ZM57.6157 29.3333H62.3565V34.0741H57.6157V29.3333ZM57.6157 34.0741H62.3565V38.8148H57.6157V34.0741ZM57.6157 38.8148H62.3565V43.5556H57.6157V38.8148ZM62.3565 38.8148H67.0972V43.5556H62.3565V38.8148ZM67.0972 38.8148H71.838V43.5556H67.0972V38.8148ZM67.0972 34.0741H71.838V38.8148H67.0972V34.0741ZM62.3565 34.0741H67.0972V38.8148H62.3565V34.0741ZM62.3565 43.5556H67.0972V48.2963H62.3565V43.5556ZM62.3565 48.2963H67.0972V53.037H62.3565V48.2963ZM62.3565 53.037H67.0972V57.7778H62.3565V53.037ZM57.6157 53.037H62.3565V57.7778H57.6157V53.037ZM57.6157 57.7778H62.3565V62.5185H57.6157V57.7778ZM57.6157 48.2963H62.3565V53.037H57.6157V48.2963ZM57.6157 43.5556H62.3565V48.2963H57.6157V43.5556ZM67.0972 43.5556H71.838V48.2963H67.0972V43.5556ZM67.0972 48.2963H71.838V53.037H67.0972V48.2963ZM67.0972 53.037H71.838V57.7778H67.0972V53.037ZM67.0972 57.7778H71.838V62.5185H67.0972V57.7778ZM62.3565 57.7778H67.0972V62.5185H62.3565V57.7778ZM62.3565 62.5185H67.0972V67.2593H62.3565V62.5185ZM67.0972 62.5185H71.838V67.2593H67.0972V62.5185ZM71.838 62.5185H76.5787V67.2593H71.838V62.5185ZM71.838 57.7778H76.5787V62.5185H71.838V57.7778ZM67.0972 67.2593H71.838V72H67.0972V67.2593ZM71.838 67.2593H76.5787V72H71.838V67.2593ZM76.5787 67.2593H81.3194V72H76.5787V67.2593ZM81.3194 67.2593H86.0602V72H81.3194V67.2593ZM86.0602 67.2593H90.8009V72H86.0602V67.2593ZM90.8009 67.2593H95.5417V72H90.8009V67.2593ZM86.0602 62.5185H90.8009V67.2593H86.0602V62.5185ZM81.3194 62.5185H86.0602V67.2593H81.3194V62.5185ZM76.5787 62.5185H81.3194V67.2593H76.5787V62.5185ZM90.8009 62.5185H95.5417V67.2593H90.8009V62.5185ZM95.5417 62.5185H100.282V67.2593H95.5417V62.5185ZM90.8009 57.7778H95.5417V62.5185H90.8009V57.7778ZM86.0602 57.7778H90.8009V62.5185H86.0602V57.7778ZM95.5417 57.7778H100.282V62.5185H95.5417V57.7778ZM100.282 57.7778H105.023V62.5185H100.282V57.7778ZM100.282 53.037H105.023V57.7778H100.282V53.037ZM95.5417 48.2963H100.282V53.037H95.5417V48.2963ZM95.5417 53.037H100.282V57.7778H95.5417V53.037ZM90.8009 53.037H95.5417V57.7778H90.8009V53.037ZM100.282 48.2963H105.023V53.037H100.282V48.2963ZM100.282 43.5556H105.023V48.2963H100.282V43.5556ZM95.5417 43.5556H100.282V48.2963H95.5417V43.5556ZM95.5417 38.8148H100.282V43.5556H95.5417V38.8148ZM95.5417 34.0741H100.282V38.8148H95.5417V34.0741ZM100.282 34.0741H105.023V38.8148H100.282V34.0741ZM100.282 29.3333H105.023V34.0741H100.282V29.3333ZM100.282 38.8148H105.023V43.5556H100.282V38.8148ZM90.8009 43.5556H95.5417V48.2963H90.8009V43.5556ZM90.8009 48.2963H95.5417V53.037H90.8009V48.2963ZM90.8009 38.8148H95.5417V43.5556H90.8009V38.8148ZM90.8009 34.0741H95.5417V38.8148H90.8009V34.0741ZM90.8009 29.3333H95.5417V34.0741H90.8009V29.3333ZM86.0602 29.3333H90.8009V34.0741H86.0602V29.3333ZM95.5417 29.3333H100.282V34.0741H95.5417V29.3333ZM71.838 29.3333H76.5787V34.0741H71.838V29.3333ZM76.5787 29.3333H81.3194V34.0741H76.5787V29.3333ZM81.3194 29.3333H86.0602V34.0741H81.3194V29.3333ZM76.5787 57.7778H81.3194V62.5185H76.5787V57.7778ZM81.3194 57.7778H86.0602V62.5185H81.3194V57.7778ZM161.898 0.888885V5.62963H157.157V0.888885H161.898ZM161.898 5.62963V10.3704H157.157V5.62963H161.898ZM161.898 10.3704V15.1111H157.157V10.3704H161.898ZM161.898 15.1111V19.8519H157.157V15.1111H161.898ZM161.898 19.8519V24.5926H157.157V19.8519H161.898ZM161.898 24.5926V29.3333H157.157V24.5926H161.898ZM161.898 62.5185V67.2593H157.157V62.5185H161.898ZM161.898 67.2593V72H157.157V67.2593H161.898ZM157.157 67.2593V72H152.417V67.2593H157.157ZM152.417 0.888885V5.62963H147.676V0.888885H152.417ZM157.157 0.888885V5.62963H152.417V0.888885H157.157ZM157.157 5.62963V10.3704H152.417V5.62963H157.157ZM152.417 5.62963V10.3704H147.676V5.62963H152.417ZM152.417 10.3704V15.1111H147.676V10.3704H152.417ZM152.417 15.1111V19.8519H147.676V15.1111H152.417ZM157.157 19.8519V24.5926H152.417V19.8519H157.157ZM157.157 15.1111V19.8519H152.417V15.1111H157.157ZM157.157 10.3704V15.1111H152.417V10.3704H157.157ZM142.935 19.8519V24.5926H138.194V19.8519H142.935ZM138.194 19.8519V24.5926H133.454V19.8519H138.194ZM133.454 19.8519V24.5926H128.713V19.8519H133.454ZM128.713 19.8519V24.5926H123.972V19.8519H128.713ZM123.972 24.5926V29.3333H119.231V24.5926H123.972ZM128.713 24.5926V29.3333H123.972V24.5926H128.713ZM133.454 24.5926V29.3333H128.713V24.5926H133.454ZM138.194 24.5926V29.3333H133.454V24.5926H138.194ZM142.935 24.5926V29.3333H138.194V24.5926H142.935ZM147.676 24.5926V29.3333H142.935V24.5926H147.676ZM157.157 24.5926V29.3333H152.417V24.5926H157.157ZM152.417 53.037V57.7778H147.676V53.037H152.417ZM147.676 62.5185V67.2593H142.935V62.5185H147.676ZM147.676 57.7778V62.5185H142.935V57.7778H147.676ZM142.935 67.2593V72H138.194V67.2593H142.935ZM138.194 67.2593V72H133.454V67.2593H138.194ZM133.454 67.2593V72H128.713V67.2593H133.454ZM128.713 67.2593V72H123.972V67.2593H128.713ZM133.454 62.5185V67.2593H128.713V62.5185H133.454ZM138.194 62.5185V67.2593H133.454V62.5185H138.194ZM142.935 62.5185V67.2593H138.194V62.5185H142.935ZM128.713 62.5185V67.2593H123.972V62.5185H128.713ZM123.972 62.5185V67.2593H119.231V62.5185H123.972ZM128.713 57.7778V62.5185H123.972V57.7778H128.713ZM133.454 57.7778V62.5185H128.713V57.7778H133.454ZM123.972 57.7778V62.5185H119.231V57.7778H123.972ZM119.231 57.7778V62.5185H114.491V57.7778H119.231ZM119.231 53.037V57.7778H114.491V53.037H119.231ZM123.972 48.2963V53.037H119.231V48.2963H123.972ZM123.972 53.037V57.7778H119.231V53.037H123.972ZM128.713 53.037V57.7778H123.972V53.037H128.713ZM119.231 48.2963V53.037H114.491V48.2963H119.231ZM119.231 43.5556V48.2963H114.491V43.5556H119.231ZM123.972 43.5556V48.2963H119.231V43.5556H123.972ZM123.972 38.8148V43.5556H119.231V38.8148H123.972ZM123.972 34.0741V38.8148H119.231V34.0741H123.972ZM119.231 34.0741V38.8148H114.491V34.0741H119.231ZM119.231 29.3333V34.0741H114.491V29.3333H119.231ZM119.231 38.8148V43.5556H114.491V38.8148H119.231ZM128.713 43.5556V48.2963H123.972V43.5556H128.713ZM128.713 48.2963V53.037H123.972V48.2963H128.713ZM128.713 38.8148V43.5556H123.972V38.8148H128.713ZM128.713 34.0741V38.8148H123.972V34.0741H128.713ZM128.713 29.3333V34.0741H123.972V29.3333H128.713ZM133.454 29.3333V34.0741H128.713V29.3333H133.454ZM123.972 29.3333V34.0741H119.231V29.3333H123.972ZM147.676 29.3333V34.0741H142.935V29.3333H147.676ZM142.935 29.3333V34.0741H138.194V29.3333H142.935ZM138.194 29.3333V34.0741H133.454V29.3333H138.194ZM142.935 57.7778V62.5185H138.194V57.7778H142.935ZM138.194 57.7778V62.5185H133.454V57.7778H138.194ZM152.417 67.2593V72H147.676V67.2593H152.417ZM152.417 62.5185V67.2593H147.676V62.5185H152.417ZM152.417 57.7778V62.5185H147.676V57.7778H152.417ZM157.157 57.7778V62.5185H152.417V57.7778H157.157ZM157.157 62.5185V67.2593H152.417V62.5185H157.157ZM157.157 53.037V57.7778H152.417V53.037H157.157ZM152.417 48.2963V53.037H147.676V48.2963H152.417ZM152.417 43.5556V48.2963H147.676V43.5556H152.417ZM152.417 38.8148V43.5556H147.676V38.8148H152.417ZM152.417 34.0741V38.8148H147.676V34.0741H152.417ZM152.417 29.3333V34.0741H147.676V29.3333H152.417ZM152.417 24.5926V29.3333H147.676V24.5926H152.417ZM152.417 19.8519V24.5926H147.676V19.8519H152.417ZM157.157 29.3333V34.0741H152.417V29.3333H157.157ZM157.157 34.0741V38.8148H152.417V34.0741H157.157ZM157.157 38.8148V43.5556H152.417V38.8148H157.157ZM157.157 43.5556V48.2963H152.417V43.5556H157.157ZM157.157 48.2963V53.037H152.417V48.2963H157.157ZM161.898 53.037V57.7778H157.157V53.037H161.898ZM161.898 57.7778V62.5185H157.157V57.7778H161.898ZM161.898 48.2963V53.037H157.157V48.2963H161.898ZM161.898 43.5556V48.2963H157.157V43.5556H161.898ZM161.898 38.8148V43.5556H157.157V38.8148H161.898ZM161.898 34.0741V38.8148H157.157V34.0741H161.898ZM161.898 29.3333V34.0741H157.157V29.3333H161.898ZM142.935 53.037H147.676V57.7778H142.935V53.037ZM142.935 19.8519H147.676V24.5926H142.935V19.8519ZM180.847 19.8519H185.588V24.5926H180.847V19.8519ZM185.588 19.8519H190.329V24.5926H185.588V19.8519ZM190.329 19.8519H195.069V24.5926H190.329V19.8519ZM195.069 19.8519H199.81V24.5926H195.069V19.8519ZM199.81 19.8519H204.551V24.5926H199.81V19.8519ZM204.551 19.8519H209.292V24.5926H204.551V19.8519ZM209.292 24.5926H214.032V29.3333H209.292V24.5926ZM204.551 24.5926H209.292V29.3333H204.551V24.5926ZM199.81 24.5926H204.551V29.3333H199.81V24.5926ZM195.069 24.5926H199.81V29.3333H195.069V24.5926ZM190.329 24.5926H195.069V29.3333H190.329V24.5926ZM185.588 24.5926H190.329V29.3333H185.588V24.5926ZM180.847 24.5926H185.588V29.3333H180.847V24.5926ZM176.106 24.5926H180.847V29.3333H176.106V24.5926ZM176.106 29.3333H180.847V34.0741H176.106V29.3333ZM180.847 29.3333H185.588V34.0741H180.847V29.3333ZM171.366 29.3333H176.106V34.0741H171.366V29.3333ZM171.366 34.0741H176.106V38.8148H171.366V34.0741ZM171.366 38.8148H176.106V43.5556H171.366V38.8148ZM176.106 38.8148H180.847V43.5556H176.106V38.8148ZM180.847 38.8148H185.588V43.5556H180.847V38.8148ZM180.847 34.0741H185.588V38.8148H180.847V34.0741ZM176.106 34.0741H180.847V38.8148H176.106V34.0741ZM176.106 43.5556H180.847V48.2963H176.106V43.5556ZM176.106 48.2963H180.847V53.037H176.106V48.2963ZM176.106 53.037H180.847V57.7778H176.106V53.037ZM171.366 53.037H176.106V57.7778H171.366V53.037ZM171.366 57.7778H176.106V62.5185H171.366V57.7778ZM171.366 48.2963H176.106V53.037H171.366V48.2963ZM171.366 43.5556H176.106V48.2963H171.366V43.5556ZM180.847 43.5556H185.588V48.2963H180.847V43.5556ZM180.847 48.2963H185.588V53.037H180.847V48.2963ZM180.847 53.037H185.588V57.7778H180.847V53.037ZM180.847 57.7778H185.588V62.5185H180.847V57.7778ZM176.106 57.7778H180.847V62.5185H176.106V57.7778ZM176.106 62.5185H180.847V67.2593H176.106V62.5185ZM180.847 62.5185H185.588V67.2593H180.847V62.5185ZM185.588 62.5185H190.329V67.2593H185.588V62.5185ZM185.588 57.7778H190.329V62.5185H185.588V57.7778ZM180.847 67.2593H185.588V72H180.847V67.2593ZM185.588 67.2593H190.329V72H185.588V67.2593ZM190.329 67.2593H195.069V72H190.329V67.2593ZM195.069 67.2593H199.81V72H195.069V67.2593ZM199.81 67.2593H204.551V72H199.81V67.2593ZM204.551 67.2593H209.292V72H204.551V67.2593ZM199.81 62.5185H204.551V67.2593H199.81V62.5185ZM195.069 62.5185H199.81V67.2593H195.069V62.5185ZM190.329 62.5185H195.069V67.2593H190.329V62.5185ZM204.551 62.5185H209.292V67.2593H204.551V62.5185ZM209.292 62.5185H214.032V67.2593H209.292V62.5185ZM204.551 57.7778H209.292V62.5185H204.551V57.7778ZM199.81 57.7778H204.551V62.5185H199.81V57.7778ZM209.292 57.7778H214.032V62.5185H209.292V57.7778ZM214.032 57.7778H218.773V62.5185H214.032V57.7778ZM209.292 34.0741H214.032V38.8148H209.292V34.0741ZM214.032 34.0741H218.773V38.8148H214.032V34.0741ZM214.032 29.3333H218.773V34.0741H214.032V29.3333ZM204.551 34.0741H209.292V38.8148H204.551V34.0741ZM204.551 29.3333H209.292V34.0741H204.551V29.3333ZM209.292 29.3333H214.032V34.0741H209.292V29.3333ZM190.329 57.7778H195.069V62.5185H190.329V57.7778ZM195.069 57.7778H199.81V62.5185H195.069V57.7778ZM214.032 38.8148H218.773V43.5556H214.032V38.8148ZM209.292 38.8148H214.032V43.5556H209.292V38.8148ZM204.551 38.8148H209.292V43.5556H204.551V38.8148ZM190.329 43.5556H195.069V48.2963H190.329V43.5556ZM195.069 43.5556H199.81V48.2963H195.069V43.5556ZM199.81 43.5556H204.551V48.2963H199.81V43.5556ZM204.551 43.5556H209.292V48.2963H204.551V43.5556ZM209.292 43.5556H214.032V48.2963H209.292V43.5556ZM214.032 43.5556H218.773V48.2963H214.032V43.5556ZM185.588 43.5556H190.329V48.2963H185.588V43.5556ZM185.588 29.3333H190.329V34.0741H185.588V29.3333ZM190.329 29.3333H195.069V34.0741H190.329V29.3333ZM195.069 29.3333H199.81V34.0741H195.069V29.3333ZM199.81 29.3333H204.551V34.0741H199.81V29.3333ZM214.032 48.2963H218.773V53.037H214.032V48.2963ZM209.292 48.2963H214.032V53.037H209.292V48.2963ZM199.81 48.2963H204.551V53.037H199.81V48.2963ZM195.069 48.2963H199.81V53.037H195.069V48.2963ZM190.329 48.2963H195.069V53.037H190.329V48.2963ZM185.588 48.2963H190.329V53.037H185.588V48.2963ZM204.551 48.2963H209.292V53.037H204.551V48.2963ZM237.722 19.8519H242.463V24.5926H237.722V19.8519ZM232.981 24.5926H237.722V29.3333H232.981V24.5926ZM232.981 29.3333H237.722V34.0741H232.981V29.3333ZM228.241 24.5926H232.981V29.3333H228.241V24.5926ZM228.241 19.8519H232.981V24.5926H228.241V19.8519ZM232.981 19.8519H237.722V24.5926H232.981V19.8519ZM232.981 34.0741H237.722V38.8148H232.981V34.0741ZM228.241 34.0741H232.981V38.8148H228.241V34.0741ZM228.241 38.8148H232.981V43.5556H228.241V38.8148ZM228.241 29.3333H232.981V34.0741H228.241V29.3333ZM228.241 43.5556H232.981V48.2963H228.241V43.5556ZM228.241 48.2963H232.981V53.037H228.241V48.2963ZM228.241 53.037H232.981V57.7778H228.241V53.037ZM228.241 57.7778H232.981V62.5185H228.241V57.7778ZM228.241 62.5185H232.981V67.2593H228.241V62.5185ZM232.981 62.5185H237.722V67.2593H232.981V62.5185ZM237.722 62.5185H242.463V67.2593H237.722V62.5185ZM237.722 67.2593H242.463V72H237.722V67.2593ZM232.981 67.2593H237.722V72H232.981V67.2593ZM228.241 67.2593H232.981V72H228.241V67.2593ZM237.722 57.7778H242.463V62.5185H237.722V57.7778ZM237.722 53.037H242.463V57.7778H237.722V53.037ZM237.722 48.2963H242.463V53.037H237.722V48.2963ZM237.722 43.5556H242.463V48.2963H237.722V43.5556ZM237.722 38.8148H242.463V43.5556H237.722V38.8148ZM237.722 34.0741H242.463V38.8148H237.722V34.0741ZM237.722 29.3333H242.463V34.0741H237.722V29.3333ZM237.722 24.5926H242.463V29.3333H237.722V24.5926ZM232.981 38.8148H237.722V43.5556H232.981V38.8148ZM232.981 48.2963H237.722V53.037H232.981V48.2963ZM232.981 53.037H237.722V57.7778H232.981V53.037ZM232.981 57.7778H237.722V62.5185H232.981V57.7778ZM232.981 43.5556H237.722V48.2963H232.981V43.5556ZM256.685 67.2593H261.426V72H256.685V67.2593ZM261.426 67.2593H266.167V72H261.426V67.2593ZM261.426 62.5185H266.167V67.2593H261.426V62.5185ZM261.426 57.7778H266.167V62.5185H261.426V57.7778ZM261.426 53.037H266.167V57.7778H261.426V53.037ZM266.167 53.037H270.907V57.7778H266.167V53.037ZM266.167 48.2963H270.907V53.037H266.167V48.2963ZM266.167 57.7778H270.907V62.5185H266.167V57.7778ZM266.167 62.5185H270.907V67.2593H266.167V62.5185ZM266.167 67.2593H270.907V72H266.167V67.2593ZM256.685 62.5185H261.426V67.2593H256.685V62.5185ZM256.685 57.7778H261.426V62.5185H256.685V57.7778ZM256.685 53.037H261.426V57.7778H256.685V53.037ZM256.685 48.2963H261.426V53.037H256.685V48.2963ZM256.685 43.5556H261.426V48.2963H256.685V43.5556ZM256.685 38.8148H261.426V43.5556H256.685V38.8148ZM256.685 34.0741H261.426V38.8148H256.685V34.0741ZM256.685 29.3333H261.426V34.0741H256.685V29.3333ZM256.685 24.5926H261.426V29.3333H256.685V24.5926ZM251.944 24.5926H256.685V29.3333H251.944V24.5926ZM261.426 29.3333H266.167V34.0741H261.426V29.3333ZM261.426 34.0741H266.167V38.8148H261.426V34.0741ZM261.426 38.8148H266.167V43.5556H261.426V38.8148ZM261.426 43.5556H266.167V48.2963H261.426V43.5556ZM261.426 48.2963H266.167V53.037H261.426V48.2963ZM266.167 43.5556H270.907V48.2963H266.167V43.5556ZM266.167 38.8148H270.907V43.5556H266.167V38.8148ZM266.167 34.0741H270.907V38.8148H266.167V34.0741ZM266.167 29.3333H270.907V34.0741H266.167V29.3333ZM261.426 24.5926H266.167V29.3333H261.426V24.5926ZM256.685 19.8519H261.426V24.5926H256.685V19.8519ZM251.944 19.8519H256.685V24.5926H251.944V19.8519ZM247.204 19.8519H251.944V24.5926H247.204V19.8519ZM247.204 24.5926H251.944V29.3333H247.204V24.5926ZM242.463 24.5926H247.204V29.3333H242.463V24.5926ZM242.463 29.3333H247.204V34.0741H242.463V29.3333ZM247.204 29.3333H251.944V34.0741H247.204V29.3333ZM251.944 29.3333H256.685V34.0741H251.944V29.3333ZM242.463 34.0741H247.204V38.8148H242.463V34.0741ZM285.13 67.2593H289.87V72H285.13V67.2593ZM289.87 67.2593H294.611V72H289.87V67.2593ZM289.87 62.5185H294.611V67.2593H289.87V62.5185ZM289.87 57.7778H294.611V62.5185H289.87V57.7778ZM289.87 53.037H294.611V57.7778H289.87V53.037ZM294.611 53.037H299.352V57.7778H294.611V53.037ZM294.611 48.2963H299.352V53.037H294.611V48.2963ZM294.611 57.7778H299.352V62.5185H294.611V57.7778ZM294.611 62.5185H299.352V67.2593H294.611V62.5185ZM294.611 67.2593H299.352V72H294.611V67.2593ZM285.13 62.5185H289.87V67.2593H285.13V62.5185ZM285.13 57.7778H289.87V62.5185H285.13V57.7778ZM285.13 53.037H289.87V57.7778H285.13V53.037ZM285.13 48.2963H289.87V53.037H285.13V48.2963ZM285.13 43.5556H289.87V48.2963H285.13V43.5556ZM285.13 38.8148H289.87V43.5556H285.13V38.8148ZM285.13 34.0741H289.87V38.8148H285.13V34.0741ZM285.13 29.3333H289.87V34.0741H285.13V29.3333ZM285.13 24.5926H289.87V29.3333H285.13V24.5926ZM280.389 24.5926H285.13V29.3333H280.389V24.5926ZM289.87 29.3333H294.611V34.0741H289.87V29.3333ZM289.87 34.0741H294.611V38.8148H289.87V34.0741ZM289.87 38.8148H294.611V43.5556H289.87V38.8148ZM289.87 43.5556H294.611V48.2963H289.87V43.5556ZM289.87 48.2963H294.611V53.037H289.87V48.2963ZM294.611 43.5556H299.352V48.2963H294.611V43.5556ZM294.611 38.8148H299.352V43.5556H294.611V38.8148ZM294.611 34.0741H299.352V38.8148H294.611V34.0741ZM294.611 29.3333H299.352V34.0741H294.611V29.3333ZM289.87 24.5926H294.611V29.3333H289.87V24.5926ZM285.13 19.8519H289.87V24.5926H285.13V19.8519ZM280.389 19.8519H285.13V24.5926H280.389V19.8519ZM275.648 19.8519H280.389V24.5926H275.648V19.8519ZM275.648 24.5926H280.389V29.3333H275.648V24.5926ZM270.907 24.5926H275.648V29.3333H270.907V24.5926ZM270.907 29.3333H275.648V34.0741H270.907V29.3333ZM275.648 29.3333H280.389V34.0741H275.648V29.3333ZM280.389 29.3333H285.13V34.0741H280.389V29.3333ZM270.907 34.0741H275.648V38.8148H270.907V34.0741ZM346.792 72H342.051V67.2593H346.792V72ZM337.31 72H332.569V67.2593H337.31V72ZM332.569 72H327.829V67.2593H332.569V72ZM327.829 72H323.088V67.2593H327.829V72ZM323.088 72H318.347V67.2593H323.088V72ZM318.347 67.2593H313.606V62.5185H318.347V67.2593ZM323.088 67.2593H318.347V62.5185H323.088V67.2593ZM327.829 67.2593H323.088V62.5185H327.829V67.2593ZM332.569 67.2593H327.829V62.5185H332.569V67.2593ZM337.31 67.2593H332.569V62.5185H337.31V67.2593ZM342.051 67.2593H337.31V62.5185H342.051V67.2593ZM346.792 67.2593H342.051V62.5185H346.792V67.2593ZM351.532 67.2593H346.792V62.5185H351.532V67.2593ZM351.532 62.5185H346.792V57.7778H351.532V62.5185ZM346.792 62.5185H342.051V57.7778H346.792V62.5185ZM356.273 62.5185H351.532V57.7778H356.273V62.5185ZM356.273 57.7778H351.532V53.037H356.273V57.7778ZM356.273 53.037H351.532V48.2963H356.273V53.037ZM351.532 53.037H346.792V48.2963H351.532V53.037ZM346.792 53.037H342.051V48.2963H346.792V53.037ZM346.792 57.7778H342.051V53.037H346.792V57.7778ZM351.532 57.7778H346.792V53.037H351.532V57.7778ZM351.532 48.2963H346.792V43.5556H351.532V48.2963ZM351.532 43.5556H346.792V38.8148H351.532V43.5556ZM351.532 38.8148H346.792V34.0741H351.532V38.8148ZM356.273 38.8148H351.532V34.0741H356.273V38.8148ZM356.273 34.0741H351.532V29.3333H356.273V34.0741ZM356.273 43.5556H351.532V38.8148H356.273V43.5556ZM356.273 48.2963H351.532V43.5556H356.273V48.2963ZM346.792 48.2963H342.051V43.5556H346.792V48.2963ZM346.792 43.5556H342.051V38.8148H346.792V43.5556ZM346.792 38.8148H342.051V34.0741H346.792V38.8148ZM346.792 34.0741H342.051V29.3333H346.792V34.0741ZM351.532 34.0741H346.792V29.3333H351.532V34.0741ZM351.532 29.3333H346.792V24.5926H351.532V29.3333ZM346.792 29.3333H342.051V24.5926H346.792V29.3333ZM342.051 29.3333H337.31V24.5926H342.051V29.3333ZM342.051 34.0741H337.31V29.3333H342.051V34.0741ZM346.792 24.5926H342.051V19.8519H346.792V24.5926ZM342.051 24.5926H337.31V19.8519H342.051V24.5926ZM337.31 24.5926H332.569V19.8519H337.31V24.5926ZM332.569 24.5926H327.829V19.8519H332.569V24.5926ZM327.829 24.5926H323.088V19.8519H327.829V24.5926ZM323.088 24.5926H318.347V19.8519H323.088V24.5926ZM327.829 29.3333H323.088V24.5926H327.829V29.3333ZM332.569 29.3333H327.829V24.5926H332.569V29.3333ZM337.31 29.3333H332.569V24.5926H337.31V29.3333ZM323.088 29.3333H318.347V24.5926H323.088V29.3333ZM318.347 29.3333H313.606V24.5926H318.347V29.3333ZM323.088 34.0741H318.347V29.3333H323.088V34.0741ZM327.829 34.0741H323.088V29.3333H327.829V34.0741ZM318.347 34.0741H313.606V29.3333H318.347V34.0741ZM313.606 34.0741H308.866V29.3333H313.606V34.0741ZM318.347 57.7778H313.606V53.037H318.347V57.7778ZM313.606 57.7778H308.866V53.037H313.606V57.7778ZM313.606 62.5185H308.866V57.7778H313.606V62.5185ZM323.088 57.7778H318.347V53.037H323.088V57.7778ZM323.088 62.5185H318.347V57.7778H323.088V62.5185ZM318.347 62.5185H313.606V57.7778H318.347V62.5185ZM337.31 34.0741H332.569V29.3333H337.31V34.0741ZM332.569 34.0741H327.829V29.3333H332.569V34.0741ZM318.347 53.037H313.606V48.2963H318.347V53.037ZM323.088 53.037H318.347V48.2963H323.088V53.037ZM337.31 48.2963H332.569V43.5556H337.31V48.2963ZM332.569 48.2963H327.829V43.5556H332.569V48.2963ZM327.829 48.2963H323.088V43.5556H327.829V48.2963ZM323.088 48.2963H318.347V43.5556H323.088V48.2963ZM342.051 48.2963H337.31V43.5556H342.051V48.2963ZM351.532 62.5185H356.273V67.2593H351.532V62.5185ZM351.532 67.2593H356.273V72H351.532V67.2593ZM346.792 67.2593H351.532V72H346.792V67.2593ZM337.31 38.8148H342.051V43.5556H337.31V38.8148ZM332.569 38.8148H337.31V43.5556H332.569V38.8148ZM327.829 38.8148H332.569V43.5556H327.829V38.8148ZM323.088 38.8148H327.829V43.5556H323.088V38.8148ZM318.347 38.8148H323.088V43.5556H318.347V38.8148ZM313.606 43.5556H318.347V48.2963H313.606V43.5556ZM308.866 48.2963H313.606V53.037H308.866V48.2963ZM323.088 57.7778H327.829V62.5185H323.088V57.7778ZM327.829 57.7778H332.569V62.5185H327.829V57.7778ZM332.569 57.7778H337.31V62.5185H332.569V57.7778ZM337.31 57.7778H342.051V62.5185H337.31V57.7778ZM403.667 29.3333H408.407V34.0741H403.667V29.3333ZM403.667 24.5926H408.407V29.3333H403.667V24.5926ZM398.926 29.3333H403.667V34.0741H398.926V29.3333ZM394.185 29.3333H398.926V34.0741H394.185V29.3333ZM394.185 24.5926H398.926V29.3333H394.185V24.5926ZM398.926 24.5926H403.667V29.3333H398.926V24.5926ZM398.926 19.8519H403.667V24.5926H398.926V19.8519ZM394.185 19.8519H398.926V24.5926H394.185V19.8519ZM389.444 19.8519H394.185V24.5926H389.444V19.8519ZM384.704 19.8519H389.444V24.5926H384.704V19.8519ZM379.963 19.8519H384.704V24.5926H379.963V19.8519ZM375.222 19.8519H379.963V24.5926H375.222V19.8519ZM375.222 24.5926H379.963V29.3333H375.222V24.5926ZM379.963 24.5926H384.704V29.3333H379.963V24.5926ZM384.704 24.5926H389.444V29.3333H384.704V24.5926ZM389.444 24.5926H394.185V29.3333H389.444V24.5926ZM370.481 24.5926H375.222V29.3333H370.481V24.5926ZM370.481 29.3333H375.222V34.0741H370.481V29.3333ZM370.481 34.0741H375.222V38.8148H370.481V34.0741ZM375.222 34.0741H379.963V38.8148H375.222V34.0741ZM375.222 29.3333H379.963V34.0741H375.222V29.3333ZM365.741 34.0741H370.481V38.8148H365.741V34.0741ZM365.741 29.3333H370.481V34.0741H365.741V29.3333ZM375.222 38.8148H379.963V43.5556H375.222V38.8148ZM370.481 38.8148H375.222V43.5556H370.481V38.8148ZM375.222 43.5556H379.963V48.2963H375.222V43.5556ZM379.963 43.5556H384.704V48.2963H379.963V43.5556ZM384.704 43.5556H389.444V48.2963H384.704V43.5556ZM384.704 38.8148H389.444V43.5556H384.704V38.8148ZM389.444 38.8148H394.185V43.5556H389.444V38.8148ZM389.444 43.5556H394.185V48.2963H389.444V43.5556ZM394.185 43.5556H398.926V48.2963H394.185V43.5556ZM398.926 43.5556H403.667V48.2963H398.926V43.5556ZM398.926 38.8148H403.667V43.5556H398.926V38.8148ZM394.185 38.8148H398.926V43.5556H394.185V38.8148ZM379.963 38.8148H384.704V43.5556H379.963V38.8148ZM365.741 53.037H370.481V57.7778H365.741V53.037ZM365.741 57.7778H370.481V62.5185H365.741V57.7778ZM370.481 53.037H375.222V57.7778H370.481V53.037ZM375.222 53.037H379.963V57.7778H375.222V53.037ZM375.222 57.7778H379.963V62.5185H375.222V57.7778ZM370.481 57.7778H375.222V62.5185H370.481V57.7778ZM370.481 62.5185H375.222V67.2593H370.481V62.5185ZM375.222 62.5185H379.963V67.2593H375.222V62.5185ZM379.963 62.5185H384.704V67.2593H379.963V62.5185ZM379.963 57.7778H384.704V62.5185H379.963V57.7778ZM375.222 67.2593H379.963V72H375.222V67.2593ZM379.963 67.2593H384.704V72H379.963V67.2593ZM384.704 67.2593H389.444V72H384.704V67.2593ZM389.444 67.2593H394.185V72H389.444V67.2593ZM394.185 67.2593H398.926V72H394.185V67.2593ZM389.444 62.5185H394.185V67.2593H389.444V62.5185ZM384.704 62.5185H389.444V67.2593H384.704V62.5185ZM394.185 62.5185H398.926V67.2593H394.185V62.5185ZM398.926 62.5185H403.667V67.2593H398.926V62.5185ZM398.926 67.2593H403.667V72H398.926V67.2593ZM403.667 62.5185H408.407V67.2593H403.667V62.5185ZM398.926 57.7778H403.667V62.5185H398.926V57.7778ZM394.185 57.7778H398.926V62.5185H394.185V57.7778ZM403.667 57.7778H408.407V62.5185H403.667V57.7778ZM408.407 57.7778H413.148V62.5185H408.407V57.7778ZM408.407 53.037H413.148V57.7778H408.407V53.037ZM408.407 48.2963H413.148V53.037H408.407V48.2963ZM403.667 48.2963H408.407V53.037H403.667V48.2963ZM403.667 43.5556H408.407V48.2963H403.667V43.5556ZM398.926 48.2963H403.667V53.037H398.926V48.2963ZM394.185 48.2963H398.926V53.037H394.185V48.2963ZM398.926 53.037H403.667V57.7778H398.926V53.037ZM403.667 53.037H408.407V57.7778H403.667V53.037ZM379.963 29.3333H384.704V34.0741H379.963V29.3333ZM441.579 5.62963H446.319V10.3704H441.579V5.62963ZM441.579 10.3704H446.319V15.1111H441.579V10.3704ZM436.838 10.3704H441.579V15.1111H436.838V10.3704ZM441.579 15.1111H446.319V19.8519H441.579V15.1111ZM436.838 15.1111H441.579V19.8519H436.838V15.1111ZM432.097 15.1111H436.838V19.8519H432.097V15.1111ZM432.097 19.8519H436.838V24.5926H432.097V19.8519ZM436.838 19.8519H441.579V24.5926H436.838V19.8519ZM441.579 19.8519H446.319V24.5926H441.579V19.8519ZM441.579 24.5926H446.319V29.3333H441.579V24.5926ZM436.838 24.5926H441.579V29.3333H436.838V24.5926ZM432.097 24.5926H436.838V29.3333H432.097V24.5926ZM427.356 24.5926H432.097V29.3333H427.356V24.5926ZM422.616 24.5926H427.356V29.3333H422.616V24.5926ZM422.616 29.3333H427.356V34.0741H422.616V29.3333ZM427.356 29.3333H432.097V34.0741H427.356V29.3333ZM432.097 29.3333H436.838V34.0741H432.097V29.3333ZM436.838 29.3333H441.579V34.0741H436.838V29.3333ZM441.579 29.3333H446.319V34.0741H441.579V29.3333ZM446.319 29.3333H451.06V34.0741H446.319V29.3333ZM451.06 29.3333H455.801V34.0741H451.06V29.3333ZM455.801 29.3333H460.542V34.0741H455.801V29.3333ZM455.801 24.5926H460.542V29.3333H455.801V24.5926ZM451.06 24.5926H455.801V29.3333H451.06V24.5926ZM446.319 24.5926H451.06V29.3333H446.319V24.5926ZM432.097 34.0741H436.838V38.8148H432.097V34.0741ZM436.838 34.0741H441.579V38.8148H436.838V34.0741ZM441.579 34.0741H446.319V38.8148H441.579V34.0741ZM441.579 38.8148H446.319V43.5556H441.579V38.8148ZM441.579 43.5556H446.319V48.2963H441.579V43.5556ZM441.579 48.2963H446.319V53.037H441.579V48.2963ZM441.579 53.037H446.319V57.7778H441.579V53.037ZM436.838 53.037H441.579V57.7778H436.838V53.037ZM436.838 48.2963H441.579V53.037H436.838V48.2963ZM436.838 43.5556H441.579V48.2963H436.838V43.5556ZM436.838 38.8148H441.579V43.5556H436.838V38.8148ZM432.097 38.8148H436.838V43.5556H432.097V38.8148ZM432.097 43.5556H436.838V48.2963H432.097V43.5556ZM432.097 48.2963H436.838V53.037H432.097V48.2963ZM432.097 53.037H436.838V57.7778H432.097V53.037ZM432.097 57.7778H436.838V62.5185H432.097V57.7778ZM436.838 57.7778H441.579V62.5185H436.838V57.7778ZM441.579 57.7778H446.319V62.5185H441.579V57.7778ZM446.319 57.7778H451.06V62.5185H446.319V57.7778ZM446.319 62.5185H451.06V67.2593H446.319V62.5185ZM441.579 62.5185H446.319V67.2593H441.579V62.5185ZM436.838 62.5185H441.579V67.2593H436.838V62.5185ZM451.06 62.5185H455.801V67.2593H451.06V62.5185ZM455.801 62.5185H460.542V67.2593H455.801V62.5185ZM455.801 67.2593H460.542V72H455.801V67.2593ZM451.06 67.2593H455.801V72H451.06V67.2593ZM446.319 67.2593H451.06V72H446.319V67.2593ZM441.579 67.2593H446.319V72H441.579V67.2593ZM479.472 19.8519H484.213V24.5926H479.472V19.8519ZM484.213 19.8519H488.954V24.5926H484.213V19.8519ZM488.954 19.8519H493.694V24.5926H488.954V19.8519ZM493.694 19.8519H498.435V24.5926H493.694V19.8519ZM498.435 19.8519H503.176V24.5926H498.435V19.8519ZM503.176 19.8519H507.917V24.5926H503.176V19.8519ZM507.917 24.5926H512.657V29.3333H507.917V24.5926ZM503.176 24.5926H507.917V29.3333H503.176V24.5926ZM498.435 24.5926H503.176V29.3333H498.435V24.5926ZM493.694 24.5926H498.435V29.3333H493.694V24.5926ZM488.954 24.5926H493.694V29.3333H488.954V24.5926ZM484.213 24.5926H488.954V29.3333H484.213V24.5926ZM479.472 24.5926H484.213V29.3333H479.472V24.5926ZM474.731 24.5926H479.472V29.3333H474.731V24.5926ZM474.731 29.3333H479.472V34.0741H474.731V29.3333ZM479.472 29.3333H484.213V34.0741H479.472V29.3333ZM469.991 29.3333H474.731V34.0741H469.991V29.3333ZM469.991 34.0741H474.731V38.8148H469.991V34.0741ZM469.991 38.8148H474.731V43.5556H469.991V38.8148ZM474.731 38.8148H479.472V43.5556H474.731V38.8148ZM479.472 38.8148H484.213V43.5556H479.472V38.8148ZM479.472 34.0741H484.213V38.8148H479.472V34.0741ZM474.731 34.0741H479.472V38.8148H474.731V34.0741ZM474.731 43.5556H479.472V48.2963H474.731V43.5556ZM474.731 48.2963H479.472V53.037H474.731V48.2963ZM474.731 53.037H479.472V57.7778H474.731V53.037ZM469.991 53.037H474.731V57.7778H469.991V53.037ZM469.991 57.7778H474.731V62.5185H469.991V57.7778ZM469.991 48.2963H474.731V53.037H469.991V48.2963ZM469.991 43.5556H474.731V48.2963H469.991V43.5556ZM479.472 43.5556H484.213V48.2963H479.472V43.5556ZM479.472 48.2963H484.213V53.037H479.472V48.2963ZM479.472 53.037H484.213V57.7778H479.472V53.037ZM479.472 57.7778H484.213V62.5185H479.472V57.7778ZM474.731 57.7778H479.472V62.5185H474.731V57.7778ZM474.731 62.5185H479.472V67.2593H474.731V62.5185ZM479.472 62.5185H484.213V67.2593H479.472V62.5185ZM484.213 62.5185H488.954V67.2593H484.213V62.5185ZM484.213 57.7778H488.954V62.5185H484.213V57.7778ZM479.472 67.2593H484.213V72H479.472V67.2593ZM484.213 67.2593H488.954V72H484.213V67.2593ZM488.954 67.2593H493.694V72H488.954V67.2593ZM493.694 67.2593H498.435V72H493.694V67.2593ZM498.435 67.2593H503.176V72H498.435V67.2593ZM503.176 67.2593H507.917V72H503.176V67.2593ZM498.435 62.5185H503.176V67.2593H498.435V62.5185ZM493.694 62.5185H498.435V67.2593H493.694V62.5185ZM488.954 62.5185H493.694V67.2593H488.954V62.5185ZM503.176 62.5185H507.917V67.2593H503.176V62.5185ZM507.917 62.5185H512.657V67.2593H507.917V62.5185ZM503.176 57.7778H507.917V62.5185H503.176V57.7778ZM498.435 57.7778H503.176V62.5185H498.435V57.7778ZM507.917 57.7778H512.657V62.5185H507.917V57.7778ZM512.657 57.7778H517.398V62.5185H512.657V57.7778ZM507.917 34.0741H512.657V38.8148H507.917V34.0741ZM512.657 34.0741H517.398V38.8148H512.657V34.0741ZM512.657 29.3333H517.398V34.0741H512.657V29.3333ZM503.176 34.0741H507.917V38.8148H503.176V34.0741ZM503.176 29.3333H507.917V34.0741H503.176V29.3333ZM507.917 29.3333H512.657V34.0741H507.917V29.3333ZM488.954 57.7778H493.694V62.5185H488.954V57.7778ZM493.694 57.7778H498.435V62.5185H493.694V57.7778ZM512.657 38.8148H517.398V43.5556H512.657V38.8148ZM507.917 38.8148H512.657V43.5556H507.917V38.8148ZM503.176 38.8148H507.917V43.5556H503.176V38.8148ZM488.954 43.5556H493.694V48.2963H488.954V43.5556ZM493.694 43.5556H498.435V48.2963H493.694V43.5556ZM498.435 43.5556H503.176V48.2963H498.435V43.5556ZM503.176 43.5556H507.917V48.2963H503.176V43.5556ZM507.917 43.5556H512.657V48.2963H507.917V43.5556ZM512.657 43.5556H517.398V48.2963H512.657V43.5556ZM484.213 43.5556H488.954V48.2963H484.213V43.5556ZM484.213 29.3333H488.954V34.0741H484.213V29.3333ZM488.954 29.3333H493.694V34.0741H488.954V29.3333ZM493.694 29.3333H498.435V34.0741H493.694V29.3333ZM498.435 29.3333H503.176V34.0741H498.435V29.3333ZM512.657 48.2963H517.398V53.037H512.657V48.2963ZM507.917 48.2963H512.657V53.037H507.917V48.2963ZM498.435 48.2963H503.176V53.037H498.435V48.2963ZM493.694 48.2963H498.435V53.037H493.694V48.2963ZM488.954 48.2963H493.694V53.037H488.954V48.2963ZM484.213 48.2963H488.954V53.037H484.213V48.2963ZM503.176 48.2963H507.917V53.037H503.176V48.2963ZM536.347 19.8519H541.088V24.5926H536.347V19.8519ZM531.606 24.5926H536.347V29.3333H531.606V24.5926ZM531.606 29.3333H536.347V34.0741H531.606V29.3333ZM526.866 24.5926H531.606V29.3333H526.866V24.5926ZM526.866 19.8519H531.606V24.5926H526.866V19.8519ZM531.606 19.8519H536.347V24.5926H531.606V19.8519ZM531.606 34.0741H536.347V38.8148H531.606V34.0741ZM526.866 34.0741H531.606V38.8148H526.866V34.0741ZM526.866 38.8148H531.606V43.5556H526.866V38.8148ZM526.866 29.3333H531.606V34.0741H526.866V29.3333ZM526.866 43.5556H531.606V48.2963H526.866V43.5556ZM526.866 48.2963H531.606V53.037H526.866V48.2963ZM526.866 53.037H531.606V57.7778H526.866V53.037ZM526.866 57.7778H531.606V62.5185H526.866V57.7778ZM526.866 62.5185H531.606V67.2593H526.866V62.5185ZM531.606 62.5185H536.347V67.2593H531.606V62.5185ZM536.347 62.5185H541.088V67.2593H536.347V62.5185ZM536.347 67.2593H541.088V72H536.347V67.2593ZM531.606 67.2593H536.347V72H531.606V67.2593ZM526.866 67.2593H531.606V72H526.866V67.2593ZM536.347 57.7778H541.088V62.5185H536.347V57.7778ZM536.347 53.037H541.088V57.7778H536.347V53.037ZM536.347 48.2963H541.088V53.037H536.347V48.2963ZM536.347 43.5556H541.088V48.2963H536.347V43.5556ZM536.347 38.8148H541.088V43.5556H536.347V38.8148ZM536.347 34.0741H541.088V38.8148H536.347V34.0741ZM536.347 29.3333H541.088V34.0741H536.347V29.3333ZM536.347 24.5926H541.088V29.3333H536.347V24.5926ZM531.606 38.8148H536.347V43.5556H531.606V38.8148ZM531.606 48.2963H536.347V53.037H531.606V48.2963ZM531.606 53.037H536.347V57.7778H531.606V53.037ZM531.606 57.7778H536.347V62.5185H531.606V57.7778ZM531.606 43.5556H536.347V48.2963H531.606V43.5556ZM560.051 29.3333H564.792V34.0741H560.051V29.3333ZM560.051 24.5926H564.792V29.3333H560.051V24.5926ZM555.31 24.5926H560.051V29.3333H555.31V24.5926ZM550.569 24.5926H555.31V29.3333H550.569V24.5926ZM564.792 24.5926H569.532V29.3333H564.792V24.5926ZM560.051 19.8519H564.792V24.5926H560.051V19.8519ZM555.31 19.8519H560.051V24.5926H555.31V19.8519ZM550.569 19.8519H555.31V24.5926H550.569V19.8519ZM545.829 19.8519H550.569V24.5926H545.829V19.8519ZM545.829 24.5926H550.569V29.3333H545.829V24.5926ZM541.088 24.5926H545.829V29.3333H541.088V24.5926ZM541.088 29.3333H545.829V34.0741H541.088V29.3333ZM555.31 29.3333H560.051V34.0741H555.31V29.3333ZM555.31 34.0741H560.051V38.8148H555.31V34.0741ZM550.569 29.3333H555.31V34.0741H550.569V29.3333ZM545.829 29.3333H550.569V34.0741H545.829V29.3333ZM541.088 34.0741H545.829V38.8148H541.088V34.0741ZM612.167 29.3333H616.907V34.0741H612.167V29.3333ZM612.167 24.5926H616.907V29.3333H612.167V24.5926ZM607.426 29.3333H612.167V34.0741H607.426V29.3333ZM602.685 29.3333H607.426V34.0741H602.685V29.3333ZM602.685 24.5926H607.426V29.3333H602.685V24.5926ZM607.426 24.5926H612.167V29.3333H607.426V24.5926ZM607.426 19.8519H612.167V24.5926H607.426V19.8519ZM602.685 19.8519H607.426V24.5926H602.685V19.8519ZM597.944 19.8519H602.685V24.5926H597.944V19.8519ZM593.204 19.8519H597.944V24.5926H593.204V19.8519ZM588.463 19.8519H593.204V24.5926H588.463V19.8519ZM583.722 19.8519H588.463V24.5926H583.722V19.8519ZM583.722 24.5926H588.463V29.3333H583.722V24.5926ZM588.463 24.5926H593.204V29.3333H588.463V24.5926ZM593.204 24.5926H597.944V29.3333H593.204V24.5926ZM597.944 24.5926H602.685V29.3333H597.944V24.5926ZM578.981 24.5926H583.722V29.3333H578.981V24.5926ZM578.981 29.3333H583.722V34.0741H578.981V29.3333ZM578.981 34.0741H583.722V38.8148H578.981V34.0741ZM583.722 34.0741H588.463V38.8148H583.722V34.0741ZM583.722 29.3333H588.463V34.0741H583.722V29.3333ZM574.241 34.0741H578.981V38.8148H574.241V34.0741ZM574.241 29.3333H578.981V34.0741H574.241V29.3333ZM583.722 38.8148H588.463V43.5556H583.722V38.8148ZM578.981 38.8148H583.722V43.5556H578.981V38.8148ZM583.722 43.5556H588.463V48.2963H583.722V43.5556ZM588.463 43.5556H593.204V48.2963H588.463V43.5556ZM593.204 43.5556H597.944V48.2963H593.204V43.5556ZM593.204 38.8148H597.944V43.5556H593.204V38.8148ZM597.944 38.8148H602.685V43.5556H597.944V38.8148ZM597.944 43.5556H602.685V48.2963H597.944V43.5556ZM602.685 43.5556H607.426V48.2963H602.685V43.5556ZM607.426 43.5556H612.167V48.2963H607.426V43.5556ZM607.426 38.8148H612.167V43.5556H607.426V38.8148ZM602.685 38.8148H607.426V43.5556H602.685V38.8148ZM588.463 38.8148H593.204V43.5556H588.463V38.8148ZM574.241 53.037H578.981V57.7778H574.241V53.037ZM574.241 57.7778H578.981V62.5185H574.241V57.7778ZM578.981 53.037H583.722V57.7778H578.981V53.037ZM583.722 53.037H588.463V57.7778H583.722V53.037ZM583.722 57.7778H588.463V62.5185H583.722V57.7778ZM578.981 57.7778H583.722V62.5185H578.981V57.7778ZM578.981 62.5185H583.722V67.2593H578.981V62.5185ZM583.722 62.5185H588.463V67.2593H583.722V62.5185ZM588.463 62.5185H593.204V67.2593H588.463V62.5185ZM588.463 57.7778H593.204V62.5185H588.463V57.7778ZM583.722 67.2593H588.463V72H583.722V67.2593ZM588.463 67.2593H593.204V72H588.463V67.2593ZM593.204 67.2593H597.944V72H593.204V67.2593ZM597.944 67.2593H602.685V72H597.944V67.2593ZM602.685 67.2593H607.426V72H602.685V67.2593ZM597.944 62.5185H602.685V67.2593H597.944V62.5185ZM593.204 62.5185H597.944V67.2593H593.204V62.5185ZM602.685 62.5185H607.426V67.2593H602.685V62.5185ZM607.426 62.5185H612.167V67.2593H607.426V62.5185ZM607.426 67.2593H612.167V72H607.426V67.2593ZM612.167 62.5185H616.907V67.2593H612.167V62.5185ZM607.426 57.7778H612.167V62.5185H607.426V57.7778ZM602.685 57.7778H607.426V62.5185H602.685V57.7778ZM612.167 57.7778H616.907V62.5185H612.167V57.7778ZM616.907 57.7778H621.648V62.5185H616.907V57.7778ZM616.907 53.037H621.648V57.7778H616.907V53.037ZM616.907 48.2963H621.648V53.037H616.907V48.2963ZM612.167 48.2963H616.907V53.037H612.167V48.2963ZM612.167 43.5556H616.907V48.2963H612.167V43.5556ZM607.426 48.2963H612.167V53.037H607.426V48.2963ZM602.685 48.2963H607.426V53.037H602.685V48.2963ZM607.426 53.037H612.167V57.7778H607.426V53.037ZM612.167 53.037H616.907V57.7778H612.167V53.037ZM588.463 29.3333H593.204V34.0741H588.463V29.3333Z" fill="black"/>
</svg>
